<svg width="170" height="34" viewBox="0 0 170 34" fill="none" xmlns="http://www.w3.org/2000/svg">
<path d="M17.7783 19.7034L20.164 8.1276H24.8515L20.2144 26.3061H16.1486L12.7045 14.8647L9.26027 26.3061H5.21126L0.574219 8.1276H5.26166L7.63059 19.6866L10.9572 8.1276H14.4685L17.7783 19.7034Z" fill="white"/>
<path d="M32.3951 26.3061H27.5228V8.1276H32.3951V26.3061ZM27.2372 3.42335C27.2372 2.69531 27.478 2.09608 27.9596 1.62566C28.4525 1.15523 29.1189 0.920022 29.9589 0.920022C30.7878 0.920022 31.4486 1.15523 31.9415 1.62566C32.4343 2.09608 32.6807 2.69531 32.6807 3.42335C32.6807 4.16259 32.4287 4.76742 31.9247 5.23785C31.4318 5.70827 30.7766 5.94348 29.9589 5.94348C29.1413 5.94348 28.4805 5.70827 27.9764 5.23785C27.4836 4.76742 27.2372 4.16259 27.2372 3.42335Z" fill="white"/>
<path d="M42.2236 3.65856V8.1276H45.3317V11.6894H42.2236V20.7619C42.2236 21.4339 42.3524 21.9155 42.61 22.2067C42.8676 22.4979 43.3604 22.6436 44.0885 22.6436C44.6261 22.6436 45.1021 22.6044 45.5166 22.5259V26.2053C44.5645 26.4966 43.5845 26.6422 42.5764 26.6422C39.1714 26.6422 37.4353 24.9229 37.3681 21.4843V11.6894H34.7136V8.1276H37.3681V3.65856H42.2236Z" fill="white"/>
<path d="M52.7745 10.1101C54.0626 8.56442 55.6811 7.79158 57.63 7.79158C61.5726 7.79158 63.5719 10.0821 63.6279 14.6631V26.3061H58.7724V14.7975C58.7724 13.7559 58.5484 12.9887 58.1004 12.4958C57.6524 11.9918 56.9076 11.7398 55.8659 11.7398C54.4434 11.7398 53.413 12.2886 52.7745 13.3863V26.3061H47.9191V0.5H52.7745V10.1101Z" fill="white"/>
<path d="M71.8435 8.1276L71.9947 10.1605C73.2828 8.58122 75.0245 7.79158 77.2198 7.79158C79.5607 7.79158 81.168 8.71563 82.0417 10.5637C83.3185 8.71563 85.1386 7.79158 87.5019 7.79158C89.4732 7.79158 90.9405 8.36841 91.9038 9.52207C92.867 10.6645 93.3486 12.3894 93.3486 14.6967V26.3061H88.4764V14.7135C88.4764 13.6831 88.2748 12.9326 87.8716 12.4622C87.4683 11.9806 86.7571 11.7398 85.7379 11.7398C84.2818 11.7398 83.2737 12.4342 82.7137 13.8231L82.7305 26.3061H77.875V14.7303C77.875 13.6775 77.6678 12.9158 77.2534 12.4454C76.839 11.975 76.1334 11.7398 75.1365 11.7398C73.7588 11.7398 72.762 12.311 72.1459 13.4535V26.3061H67.2905V8.1276H71.8435Z" fill="white"/>
<path d="M96.3392 17.0489C96.3392 15.2456 96.6864 13.6383 97.3809 12.227C98.0753 10.8157 99.0721 9.72368 100.371 8.95084C101.682 8.178 103.2 7.79158 104.924 7.79158C107.377 7.79158 109.377 8.54202 110.922 10.0429C112.479 11.5438 113.347 13.5823 113.526 16.1584L113.56 17.4017C113.56 20.1906 112.782 22.4307 111.225 24.122C109.668 25.8021 107.579 26.6422 104.958 26.6422C102.337 26.6422 100.243 25.8021 98.6745 24.122C97.1176 22.4419 96.3392 20.157 96.3392 17.2673V17.0489ZM101.195 17.4017C101.195 19.1266 101.519 20.4482 102.169 21.3667C102.819 22.2739 103.748 22.7276 104.958 22.7276C106.134 22.7276 107.053 22.2795 107.713 21.3835C108.374 20.4762 108.705 19.0314 108.705 17.0489C108.705 15.3576 108.374 14.0471 107.713 13.1175C107.053 12.1878 106.123 11.723 104.924 11.723C103.737 11.723 102.819 12.1878 102.169 13.1175C101.519 14.0359 101.195 15.464 101.195 17.4017Z" fill="white"/>
<path d="M121.02 8.1276L121.171 10.2277C122.47 8.60362 124.212 7.79158 126.396 7.79158C128.322 7.79158 129.756 8.35721 130.697 9.48847C131.638 10.6197 132.119 12.311 132.142 14.5623V26.3061H127.286V14.6799C127.286 13.6495 127.062 12.9046 126.614 12.4454C126.166 11.975 125.422 11.7398 124.38 11.7398C123.013 11.7398 121.989 12.3222 121.305 13.4871V26.3061H116.45V8.1276H121.02Z" fill="white"/>
<path d="M144.205 26.6422C141.539 26.6422 139.366 25.8245 137.686 24.1892C136.017 22.5539 135.183 20.3754 135.183 17.6537V17.1833C135.183 15.3576 135.536 13.7279 136.241 12.2942C136.947 10.8493 137.944 9.74048 139.232 8.96764C140.531 8.1836 142.01 7.79158 143.667 7.79158C146.154 7.79158 148.108 8.57562 149.531 10.1437C150.964 11.7118 151.681 13.9351 151.681 16.8137V18.7962H140.105C140.262 19.9834 140.733 20.9355 141.517 21.6523C142.312 22.3691 143.314 22.7276 144.524 22.7276C146.395 22.7276 147.856 22.0499 148.909 20.6947L151.295 23.366C150.567 24.3964 149.581 25.2029 148.338 25.7853C147.095 26.3565 145.717 26.6422 144.205 26.6422ZM143.65 11.723C142.687 11.723 141.903 12.0478 141.298 12.6974C140.705 13.3471 140.324 14.2767 140.156 15.4864H146.91V15.1C146.887 14.0247 146.596 13.1959 146.036 12.6134C145.476 12.0198 144.681 11.723 143.65 11.723Z" fill="white"/>
<path d="M161.006 19.4346L164.366 8.1276H169.574L162.266 29.1287L161.863 30.0863C160.776 32.4609 158.984 33.6481 156.486 33.6481C155.781 33.6481 155.064 33.5417 154.336 33.3289V29.6495L155.075 29.6663C155.994 29.6663 156.677 29.5263 157.125 29.2463C157.584 28.9663 157.942 28.5015 158.2 27.8518L158.771 26.3565L152.404 8.1276H157.629L161.006 19.4346Z" fill="white"/>
</svg>
